<svg version="1.2" xmlns="http://www.w3.org/2000/svg" viewBox="0 0 291 80" width="291" height="80">
	<title>LinkedIn_Logo-svg</title>
	<style>
		.s0 { fill: #006699 } 
		.s1 { fill: #000000 } 
		.s2 { fill: #ffffff } 
	</style>
	<g id="layer1">
		<g id="g3019">
			<path id="path14" class="s0" d="m213.9 7.2c0-3 2.5-5.4 5.6-5.4h64.6c3 0 5.6 2.4 5.6 5.4v65.4c0 3-2.6 5.4-5.6 5.4h-64.6c-3.1 0-5.6-2.4-5.6-5.4z"/>
			<path id="path16" fill-rule="evenodd" class="s1" d="m1.8 15.7h11.4v39.6h20.2v10.4h-31.6z"/>
			<path id="path18" fill-rule="evenodd" class="s1" d="m38 65.7v-34.5h11.4v34.5zm5.7-39.2c-3.9 0-6.4-2.6-6.4-5.9 0-3.4 2.6-6 6.5-6 3.9 0 6.3 2.6 6.4 6 0 3.3-2.5 5.9-6.5 5.9 0 0 0 0 0 0z"/>
			<path id="path20" fill-rule="evenodd" class="s1" d="m54.7 31.2h11.5v5h-0.1c1.5-2.3 4.2-5.8 10.4-5.8 7.5 0 13.2 4.9 13.2 15.5v19.8h-11.5v-18.5c0-4.6-1.6-7.8-5.8-7.8-3.1 0-5 2.2-5.9 4.2-0.3 0.8-0.3 1.8-0.3 2.8v19.3h-11.5c0 0 0.2-31.2 0-34.5z"/>
			<path id="path22" fill-rule="evenodd" class="s1" d="m105.8 44.3c0.8-1.6 10.2-14.6 10.2-14.6h13.8l-13.2 14.6 15.1 21.4h-14.1l-8.9-14.8-2.9 3.6v11.2h-11.4v-50h11.4z"/>
			<path id="path24" fill-rule="evenodd" class="s1" d="m138.6 51.2c0.4 4.7 5 6.9 10.4 6.9 3.9 0 7.1-0.5 10.1-1.5l1.6 7.5c-3.8 1.6-8.4 2.3-13.4 2.3-12.5 0-19.6-7.1-19.6-18.4 0-9.1 5.8-19.1 18.6-19.1 11.9 0 16.4 9 16.4 17.9 0 1.9-0.2 3.6-0.4 4.5 0 0-23.7-0.1-23.7-0.1zm13.5-7.7c0-2.6-1.2-7.2-6.4-7.2-4.9 0-6.9 4.3-7.2 7.2z"/>
			<path id="path26" fill-rule="evenodd" class="s1" d="m202.4 15.7v39.2c0 4.1 0.1 8.3 0.3 10.8h-10.2l-0.4-5.3h-0.3c-2.2 4-6.7 6.1-11.5 6.1-8.7 0-15.7-7.3-15.7-18.5-0.1-12 7.7-19.1 16.5-19.1 4.6 0 8 1.6 9.7 4.1h0.1v-17.3zm-11.4 29.3c0-0.6 0-1.4-0.2-2-0.6-3.1-3.1-5.5-6.7-5.5-5.2 0-7.9 4.6-7.9 10.2 0 6.1 3.1 9.9 7.9 9.9 3.3 0 6-2.2 6.7-5.4 0.1-0.7 0.2-1.6 0.2-2.5z"/>
			<path id="path28" fill-rule="evenodd" class="s2" d="m225.4 65.6v-34.4h11.5v34.4zm5.6-39.1c-3.8 0-6.3-2.7-6.3-6 0-3.3 2.5-5.9 6.4-5.9 4 0 6.4 2.6 6.4 5.9 0 3.3-2.4 6-6.4 6 0 0-0.1 0-0.1 0z"/>
			<path id="path30" fill-rule="evenodd" class="s2" d="m243.2 31.2h11.4v5c1.5-2.4 4.2-5.8 10.3-5.8 7.6 0 13.2 4.9 13.2 15.5v19.7h-11.4v-18.4c0-4.6-1.7-7.8-5.8-7.8-3.2 0-5.1 2.1-5.9 4.2-0.3 0.7-0.4 1.8-0.4 2.8v19.2h-11.4c0 0 0.1-31.2 0-34.4z"/>
		</g>
	</g>
</svg>